<svg class="continueIcon" xmlns="http://www.w3.org/2000/svg" width="44" height="63" viewBox="185 585 44 63">
  <g fill="none" fill-rule="evenodd">
    <g id="Group" stroke="#FFFEFE" stroke-width="2">
      <path id="Shape" d="M199.49574 612.537346c-3.52953-1.54409-5.99574-5.06706-5.99574-9.16605 0-5.52285 4.47715-10 10-10s10 4.47715 10 10c0 4.47754-2.94276 8.26776-6.99972 9.54211"/>
      <path id="Shape" d="M199.49961 619.897946c-7.45853-1.79895-12.99961-8.51571-12.99961-16.52665 0-9.38884 7.61116-17 17-17s17 7.61116 17 17c0 5.68837-2.78219 10.70188-7.07254 13.78783M199.5 622.371286v6"/>
      <path id="Shape" d="M206.5 620.371296v-2.5c0-1.93299 1.567-3.5 3.5-3.5 1.93299 0 3.5 1.567 3.5 3.5v2.5m0 1.00021v-1.50021c0-1.93299 1.567-3.5 3.5-3.5 1.93299 0 3.5 1.567 3.5 3.5v2.5"/>
      <path id="Shape" d="M220.5 621.871296c0-1.93299 1.567-3.5 3.5-3.5 1.84727 0 3.26627 1.63612 3.00502 3.46482L223.5 646.371296h-24c0-3.83333-7-9.33333-7-14v-6.99999c0-1.65686 1.34315-3 3-3.00001l4-.00001v-18.49999c0-1.933 1.56701-3.5 3.5-3.5h.00001c1.93299 0 3.49999 1.567 3.49999 3.5v15.5"/>
    </g>
  </g>
</svg>
